<?xml version="1.0" encoding="UTF-8"?><svg id="Layer_2" xmlns="http://www.w3.org/2000/svg" viewBox="0 0 753.79 763.47"><defs><style>.cls-1{fill:#000;stroke-width:0px;}</style></defs><g id="Layer_6"><path class="cls-1" d="M745.16,168.24c1.53,42.46-8.93,91.77-43.43,118.24,31.22,66.86,37.93,143.07,43.86,216.28.93,51.71,24.62,157.77-13.06,195.7-100.52,43.35-221.32,17.82-328.05,42.86-83.88,7.22-249.12,58.42-302.99-24.95-44.84-65.01-74.79-317-14.16-374.61C6.37,305.83-35.38,168.52,38.12,107.15,124.51,40.38,301.85,10.36,410.88,2.77c111.51-17.36,356.22,47.81,334.28,165.46ZM743.58,649.7c.09-93.4-1.19-188.28-22.03-279.75-.87-22.96-41.41-92.44-24.03-96.65,29.97-31.44,47.18-71.28,37.6-115.66C714.88-14.77,328.25,1.71,210.24,62.99c-47.71,24.4-101.51,46.48-124.46,98.59-20.38,57.49,13.04,120.07,65.36,146.55,13.36,1.36,4.48,16.73,2.96,24.59-7.69,34.69-11.78,69.97-16.29,105.17-11.9,76.22-3.8,153.99,27.25,224.77,19.68,32.33,47.93,33.45,82.68,29.91,165.4-13.79,330.55-28.99,495.83-42.88Z"/><path class="cls-1" d="M297.45,90.95c92.96,14.89,177.96-118.45,260.72-21,21.76,40.61,28.45,89.79,54.78,128.73,17.86,23.88,60.68,27.6,65.19,61.52,34.54,161.1-110.92,78.67-95.78,282.37,6.08,50.86-44.64,81.47-90.42,68.59-15.59-3.8-32.01-8.45-48.35-4.66-37.31,22.3-86.61,37-127.29,14.06-43.84-22.24-39.4-77.83-71.54-109.63-29.25-25.34-91.88-51.14-63.88-99.45,61.78-98.27-79.27-99.54-10.96-164.28,26.88-15.38,55.35-36.6,65.31-67.54,2.1-13.8-3.32-28.98,1.71-42.69,11.05-23.86,32.09-48.21,60.53-46.03ZM376.05,176.3c2.51,19.12-6,72.54,22.33,71.19,12.57-5.45,8.02-58.03,9.16-72.4-.18-24.16,5.98-80.41-34.61-62.9-16.55,18.89-10.77,62.15-20.94,82.15-10.91-11.56-16.61-46.99-25.96-61.69-1.85-14.24-17.04-21.61-29.35-15.09-24.6,24.12-5.98,103.53,2.65,135.17,2.16,8.39,10.97,6,17.39,4.63,21.38-24.06.36-66.39,1.64-95.01,12.05-5.62,14.47,42.66,25.05,47.76,25.56,7.74,18.95-34.84,26.79-49.54,7.91-24.92,9.1,7.13,5.86,15.72ZM350.88,431.15c5.01-4.07,9.74.59,14.72-2.01,2.98-4.4,6.73-4.25,11.33-2.25,46.04,2.96,54.38-54.38,4.65-59.32,45.73-17.03,36.14-104.95-18.33-88.17-10.04.45-33.39-4.61-34.51,9.24,3.42,32.23-.98,122.04,22.14,142.5ZM518.59,541.71c3.72-14.9,4.36-31.48,11.03-45.38,6.02,21.47-3.55,51.4,8.71,71.16,24.98,10.66,13.78-36.82,14.13-50.08,4.63-91.25-33.55-56.92-38.1,9.58-12.3-3.66-18.29-28.23-22.74-39.14-2.1-12.91-18.27-24.16-26.67-9.91-11.03,29.19-.63,64.63,8.23,93.66,19.03,32.75,18.44-36.14,16.31-46.58-.78-4.09-5.77-17.38-1.62-21,12.7,1.12,9.64,51.52,30.72,37.7ZM357.54,453.59l-.08-.5c-9.51,2.93-54.11,4.9-37,21.08,26.71.7,24.86-9.9,28.72,22.55,7.62,19.42,10.34,141.83-23.52,76.44-8.12-4.22-7.77,9.4-7.2,13.25,19.54,41.79,60.79,4.79,60.38-29.09,9.82-25.48-14.1-92.18,5.84-97.15,21.93-15.51-18.66-10.01-27.15-6.57ZM415.63,152.21c63.9-11.81,7.55,81.1,49.34,99.73,7.68-1.64,4.44-23.27,6-30.64-.12-23.47.48-47.2-2.58-70.31,8-2.87,27.96-1.19,25.25-14.66-17.67,3-78.94-9.4-78.01,15.89ZM413.15,562.35s-.03,0-.04,0c-3.29-11.4,7.47-24.84,18.08-15.92,3.37,3.93.29,29.33,11.54,23.95,9.11-4.36,3.93-24.25,3.04-31.18-3.15-17.71-3.3-41.46-18.39-53.15-34.31-17.17-45.8,87.54-19.56,89.36,7.67-.31,5.33-6.39,5.33-13.06ZM447.14,408.81c-3.67-16.46,1.88-42.74,21.91-27.79,4.08,5.14-4.62,33.36,8.36,23.28,13.74-30.48-16.59-136.6-45.59-58.88-5.54,12.04-7.72,72.1,15.32,63.4ZM548.03,397.68c-40.73-.11-26.2-10.09-30.57-41.57-1.68-14.68,4.85-61.39-21.61-39.51-6.28,23.22,4.83,51.11,8.29,74.53,2.22,21.38,32.2,17.5,43.9,6.54ZM565.35,223.44c-20.28-15.57-33.34,14.13-29.79-34.08-.24-8.24,4.38-67.25-16.61-53.11-12.11,18.89,1.54,49.14,1.72,70.89-1.23,26.77,27.52,26.72,44.68,16.29Z"/><path class="cls-1" d="M357.43,339.7c2.17-16.03,2.03-32.59.2-47.32,11.41-16.21,30.76-3.84,30.88,13.42,10.31,25.48-32.1,97.68-31.08,33.9Z"/><path class="cls-1" d="M399.49,402.27c1.91,17.44-24.02,22.85-33.35,11.28-1.68-10-2.27-25.42,1.87-34.65,14.21-6.23,32.84,7.97,31.48,23.37Z"/><path class="cls-1" d="M424.66,540.05c-14.7,1.05-12.87-13.21-11.96-23.38,0-4.87-1.25-27.32,10.1-22.98,6.45,2.47,7.97,20.79,9.18,26.43,2,9.28,5.32,19.06-7.28,19.75l-.05.19Z"/><path class="cls-1" d="M455.88,329.13c10.76-.08,10.1,20.21,11.2,27.52,4.65,13.6.48,17.1-13.21,16.1-11.47,4.07-8.82-45.89,2-43.62Z"/></g></svg>